<svg height="512pt" viewBox="-31 0 512 512" width="512pt" xmlns="http://www.w3.org/2000/svg"><path d="m135 135h-15v30h15c8.277344 0 15-6.722656 15-15s-6.722656-15-15-15zm0 0"/><path d="m315 75h-15v90h15c8.277344 0 15-6.722656 15-15v-60c0-8.277344-6.722656-15-15-15zm0 0"/><path d="m450 285v-270c0-8.289062-6.710938-15-15-15h-420c-8.289062 0-15 6.710938-15 15v270c0 8.289062 6.710938 15 15 15h90v-15c0-24.8125 20.1875-45 45-45h150c24.8125 0 45 20.1875 45 45v15h90c8.289062 0 15-6.710938 15-15zm-270-135c0 24.8125-20.1875 45-45 45h-30c-8.289062 0-15-6.710938-15-15v-120c0-8.289062 6.710938-15 15-15h30c24.8125 0 45 20.1875 45 45 0 11.566406-4.507812 22.019531-11.703125 30 7.195313 7.980469 11.703125 18.433594 11.703125 30zm60 30c0 8.289062-6.710938 15-15 15s-15-6.710938-15-15v-120c0-8.289062 6.710938-15 15-15s15 6.710938 15 15zm120-30c0 24.8125-20.1875 45-45 45h-30c-8.289062 0-15-6.710938-15-15v-120c0-8.289062 6.710938-15 15-15h30c24.8125 0 45 20.1875 45 45zm0 0"/><path d="m135 75h-15v30h15c8.277344 0 15-6.722656 15-15s-6.722656-15-15-15zm0 0"/><path d="m315 315v-30c0-8.289062-6.710938-15-15-15h-150c-8.289062 0-15 6.710938-15 15v30c0 8.289062 6.710938 15 15 15h150c8.289062 0 15-6.710938 15-15zm0 0"/><path d="m210 512h30c8.285156 0 15-6.714844 15-15v-137h-60v137c0 8.285156 6.714844 15 15 15zm0 0"/></svg>